<svg width="112" height="112" viewBox="0 0 112 112" fill="none" xmlns="http://www.w3.org/2000/svg">
<g clip-path="url(#clip0_1160_2642)">
<path d="M56.0273 0.847656C32.9985 0.847656 26.2634 0.871414 24.9542 0.98002C20.2283 1.37287 17.2875 2.11699 14.0838 3.71214C11.6147 4.9382 9.66753 6.35941 7.74577 8.35166C4.24588 11.9849 2.12473 16.4547 1.35688 21.7679C0.983555 24.3473 0.874952 24.8734 0.852892 38.0486C0.844407 42.4404 0.852892 48.2203 0.852892 55.9729C0.852892 78.9838 0.878346 85.7123 0.988645 87.0189C1.37045 91.6177 2.09164 94.511 3.61887 97.6759C6.53757 103.734 12.1119 108.282 18.679 109.979C20.9529 110.564 23.4643 110.887 26.6885 111.04C28.0545 111.099 41.9777 111.141 55.9094 111.141C69.8411 111.141 83.7728 111.124 85.1049 111.057C88.8381 110.881 91.0059 110.59 93.4028 109.97C100.012 108.265 105.485 103.785 108.463 97.642C109.96 94.5535 110.72 91.5498 111.063 87.1912C111.138 86.2409 111.17 71.0895 111.17 55.9584C111.17 40.8249 111.136 25.7015 111.061 24.7512C110.713 20.3221 109.954 17.3439 108.408 14.196C107.139 11.6192 105.731 9.69481 103.686 7.72717C100.037 4.2416 95.574 2.12038 90.2559 1.35335C87.6791 0.980868 87.1658 0.870565 73.9807 0.847656H56.0273Z" fill="url(#paint0_radial_1160_2642)"/>
<path d="M56.0273 0.847656C32.9985 0.847656 26.2634 0.871414 24.9542 0.98002C20.2283 1.37287 17.2875 2.11699 14.0838 3.71214C11.6147 4.9382 9.66753 6.35941 7.74577 8.35166C4.24588 11.9849 2.12473 16.4547 1.35688 21.7679C0.983555 24.3473 0.874952 24.8734 0.852892 38.0486C0.844407 42.4404 0.852892 48.2203 0.852892 55.9729C0.852892 78.9838 0.878346 85.7123 0.988645 87.0189C1.37045 91.6177 2.09164 94.511 3.61887 97.6759C6.53757 103.734 12.1119 108.282 18.679 109.979C20.9529 110.564 23.4643 110.887 26.6885 111.04C28.0545 111.099 41.9777 111.141 55.9094 111.141C69.8411 111.141 83.7728 111.124 85.1049 111.057C88.8381 110.881 91.0059 110.59 93.4028 109.97C100.012 108.265 105.485 103.785 108.463 97.642C109.96 94.5535 110.72 91.5498 111.063 87.1912C111.138 86.2409 111.17 71.0895 111.17 55.9584C111.17 40.8249 111.136 25.7015 111.061 24.7512C110.713 20.3221 109.954 17.3439 108.408 14.196C107.139 11.6192 105.731 9.69481 103.686 7.72717C100.037 4.2416 95.574 2.12038 90.2559 1.35335C87.6791 0.980868 87.1658 0.870565 73.9807 0.847656H56.0273Z" fill="url(#paint1_radial_1160_2642)"/>
<path d="M56.0019 15.2734C44.9414 15.2734 43.5533 15.3218 39.2092 15.5195C34.8736 15.718 31.9141 16.4045 29.3246 17.4116C26.6461 18.4519 24.3739 19.8434 22.1102 22.108C19.8448 24.3717 18.4533 26.644 17.4097 29.3218C16.4001 31.9122 15.7128 34.8726 15.5177 39.2066C15.3234 43.5509 15.2725 44.9399 15.2725 56.0007C15.2725 67.0616 15.3217 68.4454 15.5185 72.7897C15.7179 77.1254 16.4043 80.0849 17.4106 82.6745C18.4516 85.3532 19.8431 87.6254 22.1076 89.8892C24.3705 92.1546 26.6427 93.5496 29.3196 94.5898C31.9107 95.597 34.871 96.2834 39.2058 96.4819C43.5499 96.6796 44.9371 96.728 55.9968 96.728C67.0582 96.728 68.442 96.6796 72.7861 96.4819C77.1217 96.2834 80.0846 95.597 82.6758 94.5898C85.3535 93.5496 87.6223 92.1546 89.8851 89.8892C92.1505 87.6254 93.542 85.3532 94.5856 82.6754C95.5868 80.085 96.274 77.1246 96.4776 72.7905C96.6728 68.4463 96.7237 67.0616 96.7237 56.0007C96.7237 44.9399 96.6728 43.5517 96.4776 39.2075C96.274 34.8717 95.5868 31.9122 94.5856 29.3226C93.542 26.644 92.1505 24.3717 89.8851 22.108C87.6197 19.8425 85.3543 18.451 82.6732 17.4116C80.0769 16.4045 77.1158 15.718 72.7802 15.5195C68.4361 15.3218 67.0531 15.2734 55.9892 15.2734H56.0019ZM52.3484 22.6128C53.4328 22.6111 54.6427 22.6128 56.0019 22.6128C66.8757 22.6128 68.1646 22.6519 72.4586 22.847C76.4294 23.0286 78.5845 23.6921 80.0201 24.2496C81.9206 24.9877 83.2756 25.8702 84.7002 27.2956C86.1256 28.7211 87.008 30.0786 87.7478 31.9793C88.3053 33.4132 88.9696 35.5683 89.1503 39.5393C89.3455 43.8326 89.3879 45.1223 89.3879 55.9914C89.3879 66.8605 89.3455 68.1502 89.1503 72.4435C88.9688 76.4144 88.3053 78.5696 87.7478 80.0035C87.0097 81.9041 86.1256 83.2574 84.7002 84.682C83.2748 86.1075 81.9215 86.9899 80.0201 87.7281C78.5862 88.2881 76.4294 88.9499 72.4586 89.1315C68.1654 89.3266 66.8757 89.3691 56.0019 89.3691C45.1272 89.3691 43.8384 89.3266 39.5452 89.1315C35.5744 88.9482 33.4193 88.2847 31.9829 87.7272C30.0823 86.9891 28.7248 86.1067 27.2994 84.6812C25.874 83.2557 24.9916 81.9016 24.2517 80.0001C23.6943 78.5662 23.0299 76.411 22.8492 72.4401C22.6541 68.1468 22.615 66.8571 22.615 55.9812C22.615 45.1053 22.6541 43.8224 22.8492 39.5291C23.0308 35.5582 23.6943 33.403 24.2517 31.9674C24.9899 30.0668 25.874 28.7092 27.2994 27.2837C28.7248 25.8583 30.0823 24.9759 31.9829 24.236C33.4185 23.676 35.5744 23.0142 39.5452 22.8317C43.3022 22.662 44.7581 22.6111 52.3484 22.6026V22.6128ZM77.7411 29.3753C75.043 29.3753 72.854 31.5618 72.854 34.2608C72.854 36.959 75.043 39.1481 77.7411 39.1481C80.4392 39.1481 82.6282 36.959 82.6282 34.2608C82.6282 31.5626 80.4392 29.3736 77.7411 29.3736V29.3753ZM56.0019 35.0856C44.4518 35.0856 35.0874 44.4503 35.0874 56.0007C35.0874 67.5511 44.4518 76.9116 56.0019 76.9116C67.552 76.9116 76.913 67.5511 76.913 56.0007C76.913 44.4503 67.5511 35.0856 56.001 35.0856H56.0019ZM56.0019 42.425C63.4989 42.425 69.5772 48.5026 69.5772 56.0007C69.5772 63.4979 63.4989 69.5765 56.0019 69.5765C48.5041 69.5765 42.4265 63.4979 42.4265 56.0007C42.4265 48.5026 48.5041 42.425 56.0019 42.425Z" fill="white"/>
</g>
<defs>
<radialGradient id="paint0_radial_1160_2642" cx="0" cy="0" r="1" gradientUnits="userSpaceOnUse" gradientTransform="translate(30.1531 119.636) rotate(-90) scale(109.309 101.691)">
<stop stop-color="#FFDD55"/>
<stop offset="0.1" stop-color="#FFDD55"/>
<stop offset="0.5" stop-color="#FF543E"/>
<stop offset="1" stop-color="#C837AB"/>
</radialGradient>
<radialGradient id="paint1_radial_1160_2642" cx="0" cy="0" r="1" gradientUnits="userSpaceOnUse" gradientTransform="translate(-17.6301 8.79303) rotate(78.678) scale(48.8621 201.457)">
<stop stop-color="#3771C8"/>
<stop offset="0.128" stop-color="#3771C8"/>
<stop offset="1" stop-color="#6600FF" stop-opacity="0"/>
</radialGradient>
<clipPath id="clip0_1160_2642">
<rect width="112" height="112" fill="white"/>
</clipPath>
</defs>
</svg>
