<svg width="135" height="154" viewBox="0 0 135 154" fill="none" xmlns="http://www.w3.org/2000/svg">
<path d="M26.5908 2H109.432M36.8181 14.5413H99.2045M42.4431 27.5842V71.7294M68.0113 27.5842V71.7294M92.5567 27.5842V71.7294" stroke="url(#paint0_linear_1188_2932)" stroke-width="4" stroke-linecap="round"/>
<path d="M4.02271 102.933C3.50271 102.933 3.03937 102.833 2.63271 102.633C2.22604 102.433 1.90604 102.129 1.67271 101.723C1.43937 101.316 1.32271 100.809 1.32271 100.203V100.003C1.32271 99.4427 1.44271 98.9661 1.68271 98.5727C1.92937 98.1794 2.25604 97.8827 2.66271 97.6827C3.07604 97.4761 3.52937 97.3727 4.02271 97.3727C4.55604 97.3727 5.00271 97.4661 5.36271 97.6527C5.72271 97.8327 5.99937 98.0761 6.19271 98.3827C6.38604 98.6894 6.49604 99.0294 6.52271 99.4027H4.93271C4.88604 99.1627 4.78937 98.9794 4.64271 98.8527C4.50271 98.7194 4.29604 98.6527 4.02271 98.6527C3.80937 98.6527 3.61604 98.7027 3.44271 98.8027C3.27604 98.9027 3.14271 99.0527 3.04271 99.2527C2.94937 99.4461 2.90271 99.6961 2.90271 100.003V100.203C2.90271 100.529 2.94937 100.799 3.04271 101.013C3.13604 101.226 3.26604 101.386 3.43271 101.493C3.59937 101.593 3.79604 101.643 4.02271 101.643C4.25604 101.643 4.45271 101.583 4.61271 101.463C4.77937 101.336 4.88604 101.149 4.93271 100.903H6.52271C6.49604 101.316 6.37604 101.676 6.16271 101.983C5.94937 102.289 5.65937 102.526 5.29271 102.693C4.93271 102.853 4.50937 102.933 4.02271 102.933ZM12.5047 102.803V98.7627H10.8747V97.5027H15.6747V98.7627H14.0447V102.803H12.5047ZM21.5153 104.933C21.4153 104.933 21.3153 104.923 21.2153 104.903V103.623C21.3153 103.643 21.4153 103.653 21.5153 103.653C21.6486 103.653 21.7586 103.623 21.8453 103.563C21.9319 103.509 22.0086 103.419 22.0753 103.293C22.1486 103.166 22.2253 102.999 22.3053 102.793L20.0653 97.5027H21.7653L23.0853 101.033L24.3353 97.5027H25.8653L23.8453 102.803C23.6453 103.303 23.4553 103.709 23.2753 104.023C23.0953 104.343 22.8686 104.573 22.5953 104.713C22.3286 104.859 21.9686 104.933 21.5153 104.933ZM29.7575 104.053V101.543H30.3175C30.4108 101.403 30.4841 101.233 30.5375 101.033C30.5975 100.826 30.6408 100.573 30.6675 100.273C30.6941 99.9661 30.7075 99.6094 30.7075 99.2027V97.5027H35.0575V101.543H35.6575V104.053H34.3575V102.803H31.0575V104.053H29.7575ZM31.8275 101.543H33.5175V98.7627H32.1275V99.4027C32.1275 99.9094 32.1041 100.336 32.0575 100.683C32.0108 101.023 31.9341 101.309 31.8275 101.543ZM40.2575 102.803V97.5027H41.7575V100.703L44.0075 97.5027H45.3575V102.803H43.8575V99.6027L41.6075 102.803H40.2575ZM50.011 102.803L51.361 100.843C50.961 100.709 50.6677 100.513 50.481 100.253C50.301 99.9927 50.211 99.6861 50.211 99.3327C50.211 98.9861 50.291 98.6761 50.451 98.4027C50.611 98.1227 50.861 97.9027 51.201 97.7427C51.541 97.5827 51.9743 97.5027 52.501 97.5027H55.111V102.803H53.561V101.013H52.811L51.691 102.803H50.011ZM51.751 99.3327C51.751 99.5261 51.8177 99.6661 51.951 99.7527C52.091 99.8327 52.261 99.8727 52.461 99.8727H53.561V98.7627H52.461C52.261 98.7627 52.091 98.8094 51.951 98.9027C51.8177 98.9961 51.751 99.1394 51.751 99.3327ZM66.0606 104.053V101.543H66.6206C66.7139 101.403 66.7873 101.233 66.8406 101.033C66.9006 100.826 66.9439 100.573 66.9706 100.273C66.9973 99.9661 67.0106 99.6094 67.0106 99.2027V97.5027H71.3606V101.543H71.9606V104.053H70.6606V102.803H67.3606V104.053H66.0606ZM68.1306 101.543H69.8206V98.7627H68.4306V99.4027C68.4306 99.9094 68.4073 100.336 68.3606 100.683C68.3139 101.023 68.2373 101.309 68.1306 101.543ZM76.5606 102.803V97.5027H78.0606V100.703L80.3106 97.5027H81.6606V102.803H80.1606V99.6027L77.9106 102.803H76.5606ZM88.8341 102.933C88.2541 102.933 87.7808 102.859 87.4141 102.713C87.0541 102.559 86.7841 102.339 86.6041 102.053C86.4241 101.766 86.3274 101.416 86.3141 101.003H87.8941C87.9141 101.136 87.9441 101.253 87.9841 101.353C88.0308 101.453 88.1141 101.529 88.2341 101.583C88.3608 101.636 88.5508 101.663 88.8041 101.663C89.1374 101.663 89.3741 101.609 89.5141 101.503C89.6608 101.389 89.7341 101.266 89.7341 101.133C89.7341 100.959 89.6674 100.833 89.5341 100.753C89.4074 100.666 89.1941 100.623 88.8941 100.623H88.2041V99.6027H88.8141C89.0674 99.6027 89.2574 99.5661 89.3841 99.4927C89.5108 99.4127 89.5741 99.2861 89.5741 99.1127C89.5741 98.9794 89.5108 98.8661 89.3841 98.7727C89.2641 98.6794 89.0741 98.6327 88.8141 98.6327C88.5274 98.6327 88.3241 98.6861 88.2041 98.7927C88.0841 98.8994 88.0141 99.0527 87.9941 99.2527H86.4141C86.4408 98.8327 86.5474 98.4861 86.7341 98.2127C86.9274 97.9327 87.1974 97.7227 87.5441 97.5827C87.8974 97.4427 88.3208 97.3727 88.8141 97.3727C89.5608 97.3727 90.1308 97.5127 90.5241 97.7927C90.9174 98.0661 91.1141 98.4461 91.1141 98.9327C91.1141 99.1861 91.0541 99.4127 90.9341 99.6127C90.8141 99.8127 90.6141 99.9594 90.3341 100.053C90.7208 100.133 90.9808 100.276 91.1141 100.483C91.2541 100.689 91.3241 100.936 91.3241 101.223C91.3241 101.549 91.2241 101.843 91.0241 102.103C90.8241 102.363 90.5374 102.566 90.1641 102.713C89.7974 102.859 89.3541 102.933 88.8341 102.933ZM97.6708 102.933C97.2908 102.933 96.9641 102.859 96.6908 102.713C96.4241 102.566 96.2208 102.366 96.0808 102.113C95.9408 101.853 95.8708 101.566 95.8708 101.253C95.8708 100.726 96.0308 100.323 96.3508 100.043C96.6774 99.7627 97.1674 99.6227 97.8208 99.6227H99.3208V99.4027C99.3208 99.0827 99.2441 98.8627 99.0908 98.7427C98.9441 98.6227 98.7374 98.5627 98.4708 98.5627C98.2174 98.5627 98.0308 98.6027 97.9108 98.6827C97.7908 98.7561 97.7241 98.8794 97.7108 99.0527H96.1708C96.1908 98.7327 96.2908 98.4461 96.4708 98.1927C96.6574 97.9394 96.9208 97.7394 97.2608 97.5927C97.6074 97.4461 98.0274 97.3727 98.5208 97.3727C98.9874 97.3727 99.3974 97.4427 99.7508 97.5827C100.104 97.7227 100.377 97.9494 100.571 98.2627C100.771 98.5694 100.871 98.9827 100.871 99.5027V101.453C100.871 101.733 100.877 101.979 100.891 102.193C100.904 102.399 100.924 102.603 100.951 102.803H99.4808C99.4741 102.689 99.4641 102.589 99.4508 102.503C99.4441 102.416 99.4408 102.309 99.4408 102.183C99.2808 102.396 99.0574 102.576 98.7708 102.723C98.4908 102.863 98.1241 102.933 97.6708 102.933ZM98.1708 101.843C98.3908 101.843 98.5874 101.803 98.7608 101.723C98.9341 101.643 99.0708 101.523 99.1708 101.363C99.2708 101.196 99.3208 101.009 99.3208 100.803V100.583H98.1208C97.8941 100.583 97.7241 100.643 97.6108 100.763C97.5041 100.883 97.4508 101.019 97.4508 101.173C97.4508 101.373 97.5041 101.536 97.6108 101.663C97.7241 101.783 97.9108 101.843 98.1708 101.843ZM105.722 102.803V97.5027H107.222V100.703L109.472 97.5027H110.822V102.803H109.322V99.6027L107.072 102.803H105.722ZM108.272 96.9627C107.618 96.9627 107.155 96.8361 106.882 96.5827C106.608 96.3294 106.472 95.9494 106.472 95.4427H107.832C107.832 95.6761 107.868 95.8361 107.942 95.9227C108.015 96.0094 108.125 96.0527 108.272 96.0527C108.418 96.0527 108.528 96.0094 108.602 95.9227C108.675 95.8361 108.712 95.6761 108.712 95.4427H110.072C110.072 95.9494 109.935 96.3294 109.662 96.5827C109.388 96.8361 108.925 96.9627 108.272 96.9627ZM115.725 102.803V97.5027H117.265V99.4727H119.285V97.5027H120.825V102.803H119.285V100.733H117.265V102.803H115.725ZM127.379 102.933C126.999 102.933 126.672 102.859 126.399 102.713C126.132 102.566 125.929 102.366 125.789 102.113C125.649 101.853 125.579 101.566 125.579 101.253C125.579 100.726 125.739 100.323 126.059 100.043C126.385 99.7627 126.875 99.6227 127.529 99.6227H129.029V99.4027C129.029 99.0827 128.952 98.8627 128.799 98.7427C128.652 98.6227 128.445 98.5627 128.179 98.5627C127.925 98.5627 127.739 98.6027 127.619 98.6827C127.499 98.7561 127.432 98.8794 127.419 99.0527H125.879C125.899 98.7327 125.999 98.4461 126.179 98.1927C126.365 97.9394 126.629 97.7394 126.969 97.5927C127.315 97.4461 127.735 97.3727 128.229 97.3727C128.695 97.3727 129.105 97.4427 129.459 97.5827C129.812 97.7227 130.085 97.9494 130.279 98.2627C130.479 98.5694 130.579 98.9827 130.579 99.5027V101.453C130.579 101.733 130.585 101.979 130.599 102.193C130.612 102.399 130.632 102.603 130.659 102.803H129.189C129.182 102.689 129.172 102.589 129.159 102.503C129.152 102.416 129.149 102.309 129.149 102.183C128.989 102.396 128.765 102.576 128.479 102.723C128.199 102.863 127.832 102.933 127.379 102.933ZM127.879 101.843C128.099 101.843 128.295 101.803 128.469 101.723C128.642 101.643 128.779 101.523 128.879 101.363C128.979 101.196 129.029 101.009 129.029 100.803V100.583H127.829C127.602 100.583 127.432 100.643 127.319 100.763C127.212 100.883 127.159 101.019 127.159 101.173C127.159 101.373 127.212 101.536 127.319 101.663C127.432 101.783 127.619 101.843 127.879 101.843Z" fill="url(#paint1_linear_1188_2932)"/>
<path d="M1.61746 127.855L6.38746 115.255H8.54746L13.3175 127.855H11.0135L9.95146 125.011H4.83946L3.77746 127.855H1.61746ZM5.54146 123.139H9.24946L7.41346 117.955L5.54146 123.139ZM15.9134 128.053C15.8174 128.053 15.7094 128.047 15.5894 128.035C15.4814 128.035 15.3794 128.023 15.2834 127.999V125.947C15.3194 125.959 15.4094 125.965 15.5534 125.965C15.8174 125.965 16.0514 125.917 16.2554 125.821C16.4594 125.713 16.6274 125.515 16.7594 125.227C16.9034 124.939 17.0174 124.519 17.1014 123.967C17.1974 123.415 17.2634 122.695 17.2994 121.807C17.3354 120.907 17.3534 119.803 17.3534 118.495V115.255H26.1734V127.855H24.0134V117.127H19.4414V118.855C19.4414 120.427 19.3934 121.753 19.2974 122.833C19.2014 123.913 19.0574 124.801 18.8654 125.497C18.6854 126.181 18.4514 126.709 18.1634 127.081C17.8874 127.453 17.5574 127.711 17.1734 127.855C16.8014 127.987 16.3814 128.053 15.9134 128.053ZM30.3085 127.855V115.255H38.7685V117.127H32.4685V120.439H38.2285V122.311H32.4685V125.983H38.7685V127.855H30.3085ZM42.2827 127.855V115.255H44.4427V120.529H45.7027L50.2747 115.255H52.7227L47.4127 121.249L52.9027 127.855H50.2747L45.7027 122.221H44.4427V127.855H42.2827ZM60.3825 128.053C59.3505 128.053 58.4205 127.837 57.5925 127.405C56.7645 126.961 56.1045 126.271 55.6125 125.335C55.1325 124.387 54.8925 123.157 54.8925 121.645V121.285C54.8925 120.193 55.0365 119.257 55.3245 118.477C55.6125 117.685 56.0025 117.037 56.4945 116.533C56.9985 116.029 57.5805 115.657 58.2405 115.417C58.9125 115.177 59.6265 115.057 60.3825 115.057C61.0785 115.057 61.7265 115.147 62.3265 115.327C62.9265 115.495 63.4545 115.753 63.9105 116.101C64.3665 116.449 64.7325 116.881 65.0085 117.397C65.2845 117.913 65.4525 118.519 65.5125 119.215H63.2445C63.0885 118.435 62.7525 117.865 62.2365 117.505C61.7325 117.145 61.1145 116.965 60.3825 116.965C59.8545 116.965 59.3445 117.103 58.8525 117.379C58.3605 117.643 57.9525 118.087 57.6285 118.711C57.3165 119.335 57.1605 120.193 57.1605 121.285V121.645C57.1605 122.509 57.2565 123.235 57.4485 123.823C57.6405 124.399 57.8925 124.855 58.2045 125.191C58.5285 125.527 58.8765 125.773 59.2485 125.929C59.6325 126.073 60.0105 126.145 60.3825 126.145C61.2465 126.145 61.9125 125.947 62.3805 125.551C62.8605 125.143 63.1485 124.591 63.2445 123.895H65.5125C65.4405 124.639 65.2605 125.275 64.9725 125.803C64.6965 126.331 64.3245 126.763 63.8565 127.099C63.4005 127.423 62.8785 127.663 62.2905 127.819C61.7025 127.975 61.0665 128.053 60.3825 128.053ZM67.1487 127.855L71.9187 115.255H74.0787L78.8487 127.855H76.5447L75.4827 125.011H70.3707L69.3087 127.855H67.1487ZM71.0727 123.139H74.7807L72.9447 117.955L71.0727 123.139ZM81.6331 127.855V115.255H83.7931V120.439H89.9131V115.255H92.0731V127.855H89.9131V122.311H83.7931V127.855H81.6331ZM94.9489 130.195V125.983H96.2989C96.5269 125.539 96.7069 125.005 96.8389 124.381C96.9829 123.757 97.0909 123.079 97.1629 122.347C97.2469 121.615 97.3009 120.877 97.3249 120.133C97.3609 119.377 97.3789 118.651 97.3789 117.955V115.255H105.911V125.983H107.369V130.195H105.389V127.855H96.9289V130.195H94.9489ZM98.4949 125.983H103.751V117.127H99.4669V118.315C99.4669 120.043 99.3829 121.525 99.2149 122.761C99.0469 123.997 98.8069 125.071 98.4949 125.983ZM110.433 127.855V115.255H115.023C116.151 115.255 117.081 115.423 117.813 115.759C118.545 116.083 119.085 116.545 119.433 117.145C119.793 117.745 119.973 118.453 119.973 119.269C119.973 120.085 119.793 120.793 119.433 121.393C119.085 121.993 118.545 122.461 117.813 122.797C117.081 123.121 116.151 123.283 115.023 123.283H112.593V127.855H110.433ZM112.593 121.411H114.843C115.983 121.411 116.763 121.237 117.183 120.889C117.603 120.529 117.813 119.989 117.813 119.269C117.813 118.561 117.603 118.027 117.183 117.667C116.763 117.307 115.983 117.127 114.843 117.127H112.593V121.411ZM120.688 127.855L125.458 115.255H127.618L132.388 127.855H130.084L129.022 125.011H123.91L122.848 127.855H120.688ZM124.612 123.139H128.32L126.484 117.955L124.612 123.139ZM4.22429 149.855V137.255H12.7743V139.127H6.38429V142.007H8.99429C10.6863 142.007 11.9343 142.367 12.7383 143.087C13.5423 143.795 13.9443 144.743 13.9443 145.931C13.9443 147.119 13.5423 148.073 12.7383 148.793C11.9343 149.501 10.6863 149.855 8.99429 149.855H4.22429ZM6.38429 147.983H8.81429C9.95429 147.983 10.7343 147.809 11.1543 147.461C11.5743 147.113 11.7843 146.597 11.7843 145.913C11.7843 145.241 11.5743 144.737 11.1543 144.401C10.7343 144.053 9.95429 143.879 8.81429 143.879H6.38429V147.983ZM15.5692 149.855L20.3392 137.255H22.4992L27.2692 149.855H24.9652L23.9032 147.011H18.7912L17.7292 149.855H15.5692ZM19.4932 145.139H23.2012L21.3652 139.955L19.4932 145.139ZM31.758 149.855V139.127H27.528V137.255H38.148V139.127H33.918V149.855H31.758ZM41.0259 149.855V137.255H49.4859V139.127H43.1859V142.439H48.9459V144.311H43.1859V147.983H49.4859V149.855H41.0259ZM53.0001 149.855V137.255H55.1601V142.439H61.2801V137.255H63.4401V149.855H61.2801V144.311H55.1601V149.855H53.0001ZM67.5759 149.855V137.255H69.7359V142.007H72.1659C73.8579 142.007 75.1059 142.367 75.9099 143.087C76.7139 143.795 77.1159 144.743 77.1159 145.931C77.1159 147.119 76.7139 148.073 75.9099 148.793C75.1059 149.501 73.8579 149.855 72.1659 149.855H67.5759ZM69.7359 147.983H71.9859C73.1259 147.983 73.9059 147.809 74.3259 147.461C74.7459 147.113 74.9559 146.603 74.9559 145.931C74.9559 145.259 74.7459 144.749 74.3259 144.401C73.9059 144.053 73.1259 143.879 71.9859 143.879H69.7359V147.983ZM80.3587 149.855V137.255H82.5187V142.529H83.7787L88.3507 137.255H90.7987L85.4887 143.249L90.9787 149.855H88.3507L83.7787 144.221H82.5187V149.855H80.3587ZM98.7285 150.053C97.9605 150.053 97.2285 149.933 96.5325 149.693C95.8485 149.453 95.2365 149.081 94.6965 148.577C94.1565 148.061 93.7305 147.401 93.4185 146.597C93.1185 145.781 92.9685 144.797 92.9685 143.645V143.285C92.9685 142.181 93.1185 141.239 93.4185 140.459C93.7305 139.667 94.1565 139.019 94.6965 138.515C95.2365 138.011 95.8485 137.645 96.5325 137.417C97.2285 137.177 97.9605 137.057 98.7285 137.057C99.4965 137.057 100.223 137.177 100.907 137.417C101.603 137.645 102.221 138.011 102.761 138.515C103.301 139.019 103.721 139.667 104.021 140.459C104.333 141.239 104.489 142.181 104.489 143.285V143.645C104.489 144.797 104.333 145.781 104.021 146.597C103.721 147.401 103.301 148.061 102.761 148.577C102.221 149.081 101.603 149.453 100.907 149.693C100.223 149.933 99.4965 150.053 98.7285 150.053ZM98.7285 148.145C99.3285 148.145 99.8925 148.001 100.421 147.713C100.949 147.425 101.381 146.957 101.717 146.309C102.053 145.649 102.221 144.761 102.221 143.645V143.285C102.221 142.229 102.053 141.389 101.717 140.765C101.381 140.129 100.949 139.673 100.421 139.397C99.8925 139.109 99.3285 138.965 98.7285 138.965C98.1285 138.965 97.5585 139.109 97.0185 139.397C96.4905 139.673 96.0585 140.129 95.7225 140.765C95.3985 141.389 95.2365 142.229 95.2365 143.285V143.645C95.2365 144.761 95.3985 145.649 95.7225 146.309C96.0585 146.957 96.4905 147.425 97.0185 147.713C97.5585 148.001 98.1285 148.145 98.7285 148.145ZM107.999 149.855V137.255H113.039C114.467 137.255 115.511 137.561 116.171 138.173C116.843 138.785 117.179 139.601 117.179 140.621C117.179 141.269 117.011 141.827 116.675 142.295C116.339 142.751 115.877 143.081 115.289 143.285C116.033 143.453 116.621 143.795 117.053 144.311C117.497 144.815 117.719 145.475 117.719 146.291C117.719 146.987 117.569 147.605 117.269 148.145C116.969 148.685 116.495 149.105 115.847 149.405C115.199 149.705 114.359 149.855 113.327 149.855H107.999ZM110.159 147.983H113.093C114.029 147.983 114.671 147.833 115.019 147.533C115.379 147.233 115.559 146.771 115.559 146.147C115.559 145.535 115.379 145.067 115.019 144.743C114.659 144.407 114.011 144.239 113.075 144.239H110.159V147.983ZM110.159 142.511H112.769C113.609 142.511 114.191 142.355 114.515 142.043C114.851 141.731 115.019 141.311 115.019 140.783C115.019 140.243 114.857 139.835 114.533 139.559C114.209 139.271 113.621 139.127 112.769 139.127H110.159V142.511ZM119.431 149.855L124.201 137.255H126.361L131.131 149.855H128.827L127.765 147.011H122.653L121.591 149.855H119.431ZM123.355 145.139H127.063L125.227 139.955L123.355 145.139Z" fill="#2C3135"/>
<defs>
<linearGradient id="paint0_linear_1188_2932" x1="26.5908" y1="37.1155" x2="109.432" y2="37.1155" gradientUnits="userSpaceOnUse">
<stop stop-color="#FFC292"/>
<stop offset="1" stop-color="#504538"/>
</linearGradient>
<linearGradient id="paint1_linear_1188_2932" x1="1.02271" y1="98.8387" x2="132.023" y2="98.8387" gradientUnits="userSpaceOnUse">
<stop stop-color="#FFC292"/>
<stop offset="1" stop-color="#504538"/>
</linearGradient>
</defs>
</svg>
