<svg width="112" height="112" viewBox="0 0 112 112" fill="none" xmlns="http://www.w3.org/2000/svg">
<path d="M56 111.541C86.9279 111.541 112 86.5717 112 55.7705C112 24.9693 86.9279 0 56 0C25.0721 0 0 24.9693 0 55.7705C0 86.5717 25.0721 111.541 56 111.541Z" fill="white"/>
<path d="M56 0C25.0733 0 0 24.9705 0 55.7705C0 79.4098 14.749 99.6066 35.5819 107.731C35.0749 103.325 34.6601 96.5311 35.7663 91.7115C36.7803 87.3508 42.3111 63.9869 42.3111 63.9869C42.3111 63.9869 40.6519 60.6361 40.6519 55.7246C40.6519 47.9672 45.1687 42.1836 50.7918 42.1836C55.5852 42.1836 57.8897 45.7639 57.8897 50.0328C57.8897 54.8066 54.8477 61.9672 53.2346 68.6229C51.8979 74.177 56.0461 78.7213 61.5309 78.7213C71.4864 78.7213 79.1375 68.2557 79.1375 53.2C79.1375 39.8426 69.5045 30.5246 55.7235 30.5246C39.7761 30.5246 30.4198 42.4131 30.4198 54.7148C30.4198 59.4885 32.2634 64.6295 34.5679 67.4295C35.0288 67.9803 35.0749 68.4852 34.9366 69.0361C34.5218 70.7803 33.5539 74.5902 33.3695 75.3705C33.1391 76.3803 32.5399 76.6098 31.4798 76.1049C24.4741 72.8459 20.0955 62.7016 20.0955 54.4852C20.0955 36.9049 32.9086 20.7475 57.1062 20.7475C76.5103 20.7475 91.628 34.518 91.628 52.9705C91.628 72.2033 79.4601 87.6721 62.591 87.6721C56.9218 87.6721 51.5753 84.7344 49.7778 81.2459C49.7778 81.2459 46.9663 91.8951 46.2749 94.5115C45.0305 99.377 41.6198 105.436 39.3152 109.154C44.5695 110.761 50.1004 111.633 55.9078 111.633C86.8346 111.633 111.908 86.6623 111.908 55.8623C112 24.9705 86.9268 0 56 0Z" fill="#E60019"/>
</svg>
