<svg width="112" height="112" viewBox="0 0 112 112" fill="none" xmlns="http://www.w3.org/2000/svg">
<path d="M56 112C86.9279 112 112 86.9279 112 56C112 25.0721 86.9279 0 56 0C25.0721 0 0 25.0721 0 56C0 86.9279 25.0721 112 56 112Z" fill="#25D366"/>
<path d="M57.8457 20.5332C66.7536 20.5371 75.1145 24.0046 81.4014 30.2988C87.6882 36.5927 91.148 44.9591 91.1445 53.8564C91.1372 72.2122 76.2053 87.1478 57.8457 87.1553H57.832C52.2589 87.1534 46.7827 85.7555 41.9189 83.1025L24.2666 87.7334L28.9902 70.4775C26.0763 65.4276 24.5434 59.6988 24.5459 53.8301C24.5534 35.4703 39.4915 20.5332 57.8457 20.5332ZM57.8564 26.1572C42.5901 26.1573 30.1742 38.5723 30.168 53.832C30.1658 59.0616 31.629 64.155 34.3994 68.5615L35.0576 69.6084L32.2617 79.8223L42.7373 77.0742L43.748 77.6738C47.9974 80.1954 52.8686 81.5303 57.835 81.5322H57.8457C73.1005 81.5322 85.5164 69.1156 85.5225 53.8545C85.5253 46.4592 82.6492 39.5059 77.4238 34.2744C72.1984 29.0429 65.249 26.1598 57.8564 26.1572ZM46.0566 38.4521C46.6111 38.4522 47.1667 38.4581 47.6514 38.4824C48.162 38.5079 48.8482 38.2882 49.5234 39.9102C50.2165 41.5754 51.8787 45.6684 52.0879 46.0879C52.2959 46.5044 52.4346 46.9904 52.1572 47.5459C51.88 48.1006 51.7418 48.4481 51.3262 48.9336C50.9102 49.4193 50.4515 50.0187 50.0771 50.3916C49.6607 50.8065 49.2276 51.2569 49.7129 52.0898C50.1983 52.9229 51.8684 55.6473 54.3418 57.8535C57.5195 60.6878 60.1998 61.5669 61.0322 61.9834C61.8638 62.4 62.3496 62.3303 62.835 61.7754C63.3203 61.2201 64.9151 59.3455 65.4697 58.5127C66.0243 57.6801 66.5793 57.8191 67.3418 58.0967C68.1053 58.375 72.1954 60.3873 73.0273 60.8037C73.8592 61.2202 74.4142 61.4284 74.6221 61.7754C74.8298 62.1229 74.8294 63.7883 74.1367 65.7314C73.4431 67.6748 70.1193 69.4486 68.5205 69.6875C67.0872 69.9018 65.2732 69.9917 63.2803 69.3584C62.0718 68.975 60.5212 68.4628 58.5361 67.6055C50.1901 64.0015 44.7397 55.5982 44.3232 55.042C43.9072 54.4868 40.9258 50.53 40.9258 46.4346C40.9259 42.3397 43.0753 40.3271 43.8379 39.4941C44.6005 38.6612 45.502 38.4521 46.0566 38.4521Z" fill="#FDFDFD"/>
</svg>
