<svg width="112" height="112" viewBox="0 0 112 112" fill="none" xmlns="http://www.w3.org/2000/svg">
<path d="M112 56C112 86.9279 86.9279 112 56 112C25.0721 112 0 86.9279 0 56C0 25.0721 25.0721 0 56 0C86.9279 0 112 25.0721 112 56ZM58.0071 41.3419C52.5602 43.6074 41.6743 48.2965 25.3491 55.4091C22.6982 56.4632 21.3095 57.4946 21.1831 58.503C20.9694 60.2072 23.1036 60.8783 26.0098 61.7921C26.4051 61.9164 26.8147 62.0452 27.2347 62.1817C30.0939 63.1111 33.9401 64.1985 35.9396 64.2417C37.7534 64.2809 39.7777 63.5331 42.0126 61.9985C57.2657 51.7022 65.1394 46.498 65.6337 46.3858C65.9825 46.3067 66.4657 46.2072 66.7932 46.4982C67.1206 46.7892 67.0884 47.3404 67.0537 47.4883C66.8423 48.3896 58.4649 56.178 54.1295 60.2085C52.778 61.465 51.8193 62.3563 51.6233 62.5598C51.1843 63.0158 50.7369 63.4471 50.3069 63.8617C47.6505 66.4224 45.6585 68.3427 50.4171 71.4785C52.7039 72.9855 54.5338 74.2316 56.3594 75.4748C58.3531 76.8326 60.3416 78.1867 62.9145 79.8733C63.57 80.3029 64.196 80.7492 64.8057 81.1839C67.1259 82.838 69.2104 84.3241 71.7857 84.0871C73.2821 83.9494 74.8278 82.5423 75.6128 78.3458C77.4679 68.4282 81.1145 46.9397 81.9573 38.0848C82.0311 37.309 81.9382 36.3161 81.8637 35.8803C81.7891 35.4444 81.6332 34.8235 81.0667 34.3637C80.3957 33.8193 79.3599 33.7045 78.8966 33.7127C76.7904 33.7498 73.5589 34.8734 58.0071 41.3419Z" fill="#2B2C2E"/>
</svg>
