<svg width="111" height="111" viewBox="0 0 111 111" fill="none" xmlns="http://www.w3.org/2000/svg">
<path d="M108.714 28.811C107.434 24.0565 103.685 20.3077 98.9304 19.0276C90.2443 16.6504 55.4998 16.6504 55.4998 16.6504C55.4998 16.6504 20.7553 16.6504 12.0691 18.9362C7.40606 20.2163 3.56588 24.0565 2.28582 28.811C0 37.4971 0 55.5094 0 55.5094C0 55.5094 0 73.6131 2.28582 82.2078C3.56588 86.9623 7.31463 90.711 12.0691 91.9911C20.8467 94.3683 55.4998 94.3683 55.4998 94.3683C55.4998 94.3683 90.2443 94.3683 98.9304 92.0825C103.685 90.8025 107.434 87.0537 108.714 82.2992C111 73.6131 111 55.6008 111 55.6008C111 55.6008 111.091 37.4971 108.714 28.811Z" fill="#FF0000"/>
<path d="M44.4365 72.1507L73.3293 55.5099L44.4365 38.8691V72.1507Z" fill="white"/>
</svg>
